<?xml version="1.0" encoding="UTF-8"?>
<svg width="96px" height="191px" viewBox="0 0 96 191" version="1.1" xmlns="http://www.w3.org/2000/svg" xmlns:xlink="http://www.w3.org/1999/xlink">
    <!-- Generator: Sketch 53.2 (72643) - https://sketchapp.com -->
    <title>device_iphone-x</title>
    <desc>Created with Sketch.</desc>
    <defs>
        <path d="M1.45,0.688 C1.33030593,0.687733716 1.21543753,0.735164136 1.13080083,0.819800835 C1.04616414,0.904437533 0.998733716,1.01930593 0.999,1.139 L0.999,22.084 C0.998733716,22.2036941 1.04616414,22.3185625 1.13080083,22.4031992 C1.21543753,22.4878359 1.33030593,22.5352663 1.45,22.535 L4.924,22.535 C5.04369407,22.5352663 5.15856247,22.4878359 5.24319917,22.4031992 C5.32783586,22.3185625 5.37526628,22.2036941 5.375,22.084 L5.375,1.14 C5.37526628,1.02030593 5.32783586,0.905437533 5.24319917,0.820800835 C5.15856247,0.736164136 5.04369407,0.688733716 4.924,0.689 L1.45,0.688 Z" id="path-1"></path>
        <linearGradient x1="76.3502516%" y1="-0.0475226456%" x2="76.3502516%" y2="99.9999761%" id="linearGradient-3">
            <stop stop-color="#CBCBCB" stop-opacity="0.275" offset="0%"></stop>
            <stop stop-color="#CBCBCB" offset="4%"></stop>
            <stop stop-color="#CBCBCB" offset="96%"></stop>
            <stop stop-color="#CBCBCB" stop-opacity="0.276" offset="100%"></stop>
        </linearGradient>
        <linearGradient x1="76.2502516%" y1="-0.0150478841%" x2="76.2502516%" y2="99.9847999%" id="linearGradient-4">
            <stop stop-color="#CBCBCB" stop-opacity="0.275" offset="0%"></stop>
            <stop stop-color="#CBCBCB" offset="5%"></stop>
            <stop stop-color="#CBCBCB" offset="95%"></stop>
            <stop stop-color="#CBCBCB" stop-opacity="0.276" offset="100%"></stop>
        </linearGradient>
        <linearGradient x1="0.186666667%" y1="5.55263158%" x2="0.186666667%" y2="7.35457064%" id="linearGradient-5">
            <stop stop-color="#CBCBCB" stop-opacity="0.275" offset="0%"></stop>
            <stop stop-color="#CBCBCB" offset="5%"></stop>
            <stop stop-color="#CBCBCB" offset="95%"></stop>
            <stop stop-color="#CBCBCB" stop-opacity="0.276" offset="100%"></stop>
        </linearGradient>
        <path d="M1.45,0.688 C1.33030593,0.687733716 1.21543753,0.735164136 1.13080083,0.819800835 C1.04616414,0.904437533 0.998733716,1.01930593 0.999,1.139 L0.999,14.05 C0.998733716,14.1696941 1.04616414,14.2845625 1.13080083,14.3691992 C1.21543753,14.4538359 1.33030593,14.5012663 1.45,14.501 L4.924,14.501 C5.04369407,14.5012663 5.15856247,14.4538359 5.24319917,14.3691992 C5.32783586,14.2845625 5.37526628,14.1696941 5.375,14.05 L5.375,1.14 C5.37526628,1.02030593 5.32783586,0.905437533 5.24319917,0.820800835 C5.15856247,0.736164136 5.04369407,0.688733716 4.924,0.689 L1.45,0.688 Z" id="path-6"></path>
        <linearGradient x1="76.3502516%" y1="-0.0768252104%" x2="76.3502516%" y2="99.9230974%" id="linearGradient-8">
            <stop stop-color="#CBCBCB" stop-opacity="0.275" offset="0%"></stop>
            <stop stop-color="#CBCBCB" offset="5%"></stop>
            <stop stop-color="#CBCBCB" offset="95%"></stop>
            <stop stop-color="#CBCBCB" stop-opacity="0.276" offset="100%"></stop>
        </linearGradient>
        <path d="M1.45,0.688 C1.33030593,0.687733716 1.21543753,0.735164136 1.13080083,0.819800835 C1.04616414,0.904437533 0.998733716,1.01930593 0.999,1.139 L0.999,14.05 C0.998733716,14.1696941 1.04616414,14.2845625 1.13080083,14.3691992 C1.21543753,14.4538359 1.33030593,14.5012663 1.45,14.501 L4.924,14.501 C5.04369407,14.5012663 5.15856247,14.4538359 5.24319917,14.3691992 C5.32783586,14.2845625 5.37526628,14.1696941 5.375,14.05 L5.375,1.14 C5.37526628,1.02030593 5.32783586,0.905437533 5.24319917,0.820800835 C5.15856247,0.736164136 5.04369407,0.688733716 4.924,0.689 L1.45,0.688 Z" id="path-9"></path>
        <linearGradient x1="63.6813938%" y1="50.0003643%" x2="99.9593388%" y2="50.0003643%" id="linearGradient-11">
            <stop stop-color="#404040" offset="0%"></stop>
            <stop stop-color="#838383" offset="60%"></stop>
            <stop stop-color="#A7A7A7" offset="100%"></stop>
        </linearGradient>
        <linearGradient x1="36.3065558%" y1="49.9996916%" x2="-6.82903418e-15%" y2="49.9996916%" id="linearGradient-12">
            <stop stop-color="#404040" offset="0%"></stop>
            <stop stop-color="#838383" offset="60%"></stop>
            <stop stop-color="#A7A7A7" offset="100%"></stop>
        </linearGradient>
        <linearGradient x1="-2.25947854e-15%" y1="100%" x2="100.002544%" y2="100%" id="linearGradient-13">
            <stop stop-color="#4F4F4F" stop-opacity="0.13" offset="0%"></stop>
            <stop stop-color="#4F4F4F" offset="7%"></stop>
            <stop stop-color="#4F4F4F" stop-opacity="0.953" offset="93.7%"></stop>
            <stop stop-color="#4F4F4F" stop-opacity="0" offset="100%"></stop>
        </linearGradient>
        <linearGradient x1="-2.25947854e-15%" y1="0%" x2="100.002544%" y2="0%" id="linearGradient-14">
            <stop stop-color="#4F4F4F" stop-opacity="0.13" offset="0%"></stop>
            <stop stop-color="#4F4F4F" offset="7%"></stop>
            <stop stop-color="#4F4F4F" stop-opacity="0.953" offset="93.7%"></stop>
            <stop stop-color="#4F4F4F" stop-opacity="0" offset="100%"></stop>
        </linearGradient>
    </defs>
    <g id="Page-1" stroke="none" stroke-width="1" fill="none" fill-rule="evenodd">
        <g id="device_iphone-x" transform="translate(-1.000000, 0.000000)">
            <path d="M95.8,44.206 C95.9196941,44.2057337 96.0345625,44.2531641 96.1191992,44.3378008 C96.2038359,44.4224375 96.2512663,44.5373059 96.251,44.657 L96.251,65.602 C96.2512663,65.7216941 96.2038359,65.8365625 96.1191992,65.9211992 C96.0345625,66.0058359 95.9196941,66.0532663 95.8,66.053 L92.326,66.053 C92.2063059,66.0532663 92.0914375,66.0058359 92.0068008,65.9211992 C91.9221641,65.8365625 91.8747337,65.7216941 91.875,65.602 L91.875,44.657 C91.8747337,44.5373059 91.9221641,44.4224375 92.0068008,44.3378008 C92.0914375,44.2531641 92.2063059,44.2057337 92.326,44.206 L95.8,44.206 Z" id="Path" fill="#000000" fill-rule="nonzero"></path>
            <g id="Clipped" transform="translate(0.000000, 39.000000)">
                <mask id="mask-2" fill="white">
                    <use xlink:href="#path-1"></use>
                </mask>
                <g id="Path"></g>
                <path d="M95.980008,5.618368 C95.8732278,5.61783275 95.7706663,5.6600143 95.6951603,5.73552026 C95.6196543,5.81102623 95.5774728,5.91358778 95.578008,6.020368 L95.578008,26.248368 C95.5774728,26.3551482 95.6196543,26.4577098 95.6951603,26.5332157 C95.7706663,26.6087217 95.8732278,26.6509032 95.980008,26.650368 L96.105008,26.650368 L96.105008,5.618368 L95.980008,5.618368 Z" id="Path" fill="url(#linearGradient-3)" fill-rule="nonzero" mask="url(#mask-2)" transform="translate(95.841506, 16.134368) scale(-1, 1) translate(-95.841506, -16.134368) "></path>
            </g>
            <g id="Group" transform="translate(0.014000, 25.000000)" fill-rule="nonzero">
                <rect id="Rectangle" fill="#000000" x="0.986" y="0.857" width="4.377" height="7.417"></rect>
                <g id="Clipped" transform="translate(0.000000, 1.000000)" fill="url(#linearGradient-4)">
                    <path d="M1.534,0.26 C1.42721978,0.259464751 1.32465823,0.301646299 1.24915226,0.377152262 C1.1736463,0.452658226 1.13146475,0.555219784 1.132,0.662 L1.132,6.47 C1.13146475,6.57678022 1.1736463,6.67934177 1.24915226,6.75484774 C1.32465823,6.8303537 1.42721978,6.87253525 1.534,6.872 L1.659,6.872 L1.659,0.26 L1.534,0.26 Z" id="Path"></path>
                </g>
            </g>
            <path d="M1.45,39.688 C1.33030593,39.6877337 1.21543753,39.7351641 1.13080083,39.8198008 C1.04616414,39.9044375 0.998733716,40.0193059 0.999,40.139 L0.999,53.05 C0.998733716,53.1696941 1.04616414,53.2845625 1.13080083,53.3691992 C1.21543753,53.4538359 1.33030593,53.5012663 1.45,53.501 L4.924,53.501 C5.04369407,53.5012663 5.15856247,53.4538359 5.24319917,53.3691992 C5.32783586,53.2845625 5.37526628,53.1696941 5.375,53.05 L5.375,40.14 C5.37526628,40.0203059 5.32783586,39.9054375 5.24319917,39.8208008 C5.15856247,39.7361641 5.04369407,39.6887337 4.924,39.689 L1.45,39.688 Z" id="Path" fill="#000000" fill-rule="nonzero"></path>
            <g id="V-link" transform="translate(0.000000, 39.000000)">
                <g id="V-Clipped">
                    <mask id="mask-7" fill="white">
                        <use xlink:href="#path-6"></use>
                    </mask>
                    <g id="Path"></g>
                    <path d="M1.547,1.1 C1.44021978,1.09946475 1.33765823,1.1416463 1.26215226,1.21715226 C1.1866463,1.29265823 1.14446475,1.39521978 1.145,1.502 L1.145,13.708 C1.14446475,13.8147802 1.1866463,13.9173418 1.26215226,13.9928477 C1.33765823,14.0683537 1.44021978,14.1105352 1.547,14.11 L1.672,14.11 L1.672,1.11 L1.547,1.1 Z" id="V" fill="url(#linearGradient-8)" fill-rule="nonzero" mask="url(#mask-7)"></path>
                </g>
            </g>
            <path d="M1.45,57.06 C1.33030593,57.0597337 1.21543753,57.1071641 1.13080083,57.1918008 C1.04616414,57.2764375 0.998733716,57.3913059 0.999,57.511 L0.999,70.424 C0.998733716,70.5436941 1.04616414,70.6585625 1.13080083,70.7431992 C1.21543753,70.8278359 1.33030593,70.8752663 1.45,70.875 L4.924,70.875 C5.04369407,70.8752663 5.15856247,70.8278359 5.24319917,70.7431992 C5.32783586,70.6585625 5.37526628,70.5436941 5.375,70.424 L5.375,57.512 C5.37526628,57.3923059 5.32783586,57.2774375 5.24319917,57.1928008 C5.15856247,57.1081641 5.04369407,57.0607337 4.924,57.061 L1.45,57.06 Z" id="Path" fill="#000000" fill-rule="nonzero"></path>
            <g id="V-link" transform="translate(0.000000, 56.373000)">
                <g id="V-Clipped">
                    <mask id="mask-10" fill="white">
                        <use xlink:href="#path-9"></use>
                    </mask>
                    <g id="Path"></g>
                    <path d="M1.547,1.1 C1.44021978,1.09946475 1.33765823,1.1416463 1.26215226,1.21715226 C1.1866463,1.29265823 1.14446475,1.39521978 1.145,1.502 L1.145,13.708 C1.14446475,13.8147802 1.1866463,13.9173418 1.26215226,13.9928477 C1.33765823,14.0683537 1.44021978,14.1105352 1.547,14.11 L1.672,14.11 L1.672,1.11 L1.547,1.1 Z" id="V" fill="url(#linearGradient-8)" fill-rule="nonzero" mask="url(#mask-10)"></path>
                </g>
            </g>
            <path d="M15.483,0.2 L81.767,0.2 C89.503,0.2 95.73,6.427 95.733,14.163 L95.733,176.796 C95.733,184.531 89.505,190.761 81.768,190.761 L53.468,190.761 L52.888,189.941 L44.363,189.941 L43.785,190.761 L15.485,190.761 C7.748,190.761 1.52,184.533 1.52,176.796 L1.52,14.163 C1.52,6.427 7.747,0.2 15.483,0.2 Z M7.27274182,14.359467 L7.27274182,176.601442 C7.27274182,181.302559 11.0573419,185.087159 15.7584587,185.087159 L81.4915437,185.087159 C86.1926605,185.087159 89.9772606,181.302559 89.9772606,176.601442 L89.9772606,14.3597316 C89.9772606,9.65861483 86.1926605,5.87401473 81.4915437,5.87401473 L73.1907706,5.87401473 C72.4081586,5.87445264 24.8418438,5.8749818 24.0592318,5.8745439 L15.7584587,5.8745439 C11.0573419,5.87375015 7.27274182,9.65835024 7.27274182,14.359467 Z" id="Combined-Shape" fill="#000000" fill-rule="nonzero"></path>
            <polygon id="Path" fill="#7D7E7F" fill-rule="nonzero" points="1.837 19.826 2.94 19.826 2.94 18.523 1.837 18.523"></polygon>
            <polygon id="Path" fill="#EBEBEB" fill-rule="nonzero" points="1.837 171.2 2.94 171.2 2.94 19.826 1.837 19.826"></polygon>
            <polygon id="Path" fill="#7D7E7F" fill-rule="nonzero" points="1.837 172.504 2.94 172.504 2.94 171.2 1.837 171.2"></polygon>
            <path d="M95.414,172.504 L94.31,172.504 L94.31,176.864 C94.3166541,180.232959 92.9812859,183.465849 90.5990676,185.848068 C88.2168494,188.230286 84.9839588,189.565654 81.615,189.559 L15.634,189.559 C12.2650412,189.565654 9.03215065,188.230286 6.64993237,185.848068 C4.26771409,183.465849 2.9323459,180.232959 2.939,176.864 L2.939,172.504 L1.837,172.504 L1.837,176.287 C1.837,184.139 8.159,190.461 16.011,190.461 L81.24,190.461 C89.092,190.461 95.414,184.139 95.414,176.287 L95.414,172.504 Z" id="Path" fill="#EBEBEB" fill-rule="nonzero"></path>
            <polygon id="Path" fill="#7D7E7F" fill-rule="nonzero" points="95.414 171.2 94.31 171.2 94.31 172.503 95.412 172.503"></polygon>
            <polygon id="Path" fill="#EBEBEB" fill-rule="nonzero" points="95.414 19.826 94.31 19.826 94.31 171.2 95.412 171.2"></polygon>
            <polygon id="Path" fill="#7D7E7F" fill-rule="nonzero" points="95.414 18.523 94.31 18.523 94.31 19.826 95.412 19.826"></polygon>
            <path d="M16.01,0.6 C8.16,0.6 1.837,6.92 1.837,14.774 L1.837,18.524 L2.94,18.524 L2.94,14.348 C2.93308052,10.9790417 4.26819404,7.74604597 6.65022467,5.36364004 C9.0322553,2.98123411 12.2650406,1.64561127 15.634,1.652 L81.616,1.652 C84.9849588,1.6453459 88.2178494,2.98071409 90.6000676,5.36293237 C92.9822859,7.74515065 94.3176541,10.9780412 94.311,14.347 L94.311,18.523 L95.413,18.523 L95.413,14.773 C95.414,6.92 89.092,0.6 81.24,0.6 L16.01,0.6 Z" id="Path" fill="#EBEBEB" fill-rule="nonzero"></path>
            <g id="Group" transform="translate(2.887000, 4.000000)" fill-rule="nonzero">
                <path d="M84.1430438,0.0647938524 C83.8321584,0.034102185 83.9790022,0.343929276 84.6764439,0.989777209 C86.9772606,3.12099601 88.4060106,6.20577317 88.4060106,9.63900659 L88.4060106,173.454459 C88.4060106,176.887957 86.9772606,179.972734 84.6764439,182.103688 C83.9790022,182.749271 83.8297772,183.059628 84.1430438,183.028671 C84.3295751,183.010151 84.6806772,182.869128 85.1759772,182.604809 C88.5388314,180.810934 90.4941023,176.94008 90.4941023,172.829777 L90.4941023,10.261042 C90.4941023,6.15021067 88.5414773,2.27988557 85.1759772,0.48601053 C84.6806772,0.22142719 84.3293105,0.0806688528 84.1430438,0.062148019 L84.1430438,0.0647938524 Z" id="Path" fill="url(#linearGradient-11)"></path>
                <path d="M7.333,0.065 C7.643,0.035 7.497,0.345 6.8,0.99 C4.5,3.12 3.07,6.206 3.07,9.64 L3.07,173.455 C3.07,176.889 4.5,179.973 6.8,182.105 C7.497,182.751 7.644,183.061 7.333,183.03 C7.147,183.01 6.795,182.87 6.3,182.606 C2.937,180.812 0.985,176.942 0.985,172.831 L0.985,10.264 C0.985,6.154 2.938,2.284 6.3,0.489 C6.795,0.225 7.147,0.084 7.333,0.065 Z" id="Path" fill="url(#linearGradient-12)"></path>
            </g>
            <path d="M15.624,2.577 C13.324,2.577 11.187,3.234 9.382,4.369 L9.382,5.874 C11.102,4.746 13.162,4.089 15.382,4.089 L82,4.089 C84.22,4.089 86.28,4.746 88,5.874 L88,4.37 C86.195,3.235 84.057,2.578 81.758,2.578 L41.794,2.578 L15.624,2.577 Z" id="Path" fill="url(#linearGradient-13)" fill-rule="nonzero"></path>
            <path d="M15.624,188.384 C13.324,188.384 11.187,187.727 9.382,186.592 L9.382,185.087 C11.102,186.215 13.162,186.872 15.382,186.872 L82,186.872 C84.22,186.872 86.28,186.215 88,185.087 L88,186.592 C86.195,187.727 84.057,188.384 81.758,188.384 L41.794,188.384 L15.624,188.384 Z" id="Path" fill="url(#linearGradient-14)" fill-rule="nonzero"></path>
        </g>
    </g>
</svg>
