<?xml version="1.0" standalone="no"?>
<!DOCTYPE svg PUBLIC "-//W3C//DTD SVG 20010904//EN"
 "http://www.w3.org/TR/2001/REC-SVG-20010904/DTD/svg10.dtd">
<svg version="1.0" xmlns="http://www.w3.org/2000/svg"
 width="700.000000pt" height="700.000000pt" viewBox="0 0 700.000000 700.000000"
 preserveAspectRatio="xMidYMid meet">
<metadata>
Created by potrace 1.11, written by Peter Selinger 2001-2013
</metadata>
<g transform="translate(0.000000,700.000000) scale(0.100000,-0.100000)"
fill="#000000" stroke="none">
<path d="M325 6986 c-107 -27 -217 -110 -268 -204 -61 -113 -57 129 -57 -3282
0 -3411 -4 -3169 57 -3282 31 -57 113 -138 171 -167 106 -54 -101 -51 3272
-51 3411 0 3169 -4 3282 57 57 31 138 113 167 171 54 106 51 -101 51 3272 0
2767 -2 3122 -15 3175 -42 158 -168 281 -323 314 -80 17 -6268 14 -6337 -3z
m3670 -1450 c326 -62 620 -178 875 -345 91 -59 259 -192 300 -235 l24 -27 -54
-54 c-30 -30 -147 -139 -258 -242 l-204 -188 -70 67 c-322 309 -864 463 -1288
366 -512 -116 -927 -523 -1055 -1036 -82 -331 -45 -664 110 -972 199 -395 560
-671 990 -756 122 -25 355 -24 485 0 195 37 404 120 563 222 l67 44 0 365 0
365 -500 0 -500 0 0 295 0 295 860 0 860 0 0 -809 0 -809 -67 -62 c-302 -283
-748 -493 -1199 -566 -135 -22 -425 -29 -555 -15 -254 29 -502 103 -724 215
-224 114 -374 222 -548 394 -183 180 -304 347 -416 573 -455 918 -146 2011
734 2594 295 195 599 305 965 349 19 2 132 3 250 1 182 -2 236 -7 355 -29z"/>
</g>
</svg>
